# xmcd
#
# Track frame offsets:
#	182
#	17750
#	27637
#	45862
#	64562
#	80722
#	97120
#	115622
#	135762
#	154132
#	173062
#
# Disc length: 2575 seconds
#
# Revision: 3
# Processed by: cddbd v1.5.2PL0 Copyright (c) Steve Scherf et al.
# Submitted via: audiograbber 1.83.01
#
DISCID=7f0a0d0b
DTITLE=Jean-Jacques Milteau - Explorer
DYEAR=1991
DGENRE=Blues
TTITLE0=Freddie
TTITLE1=Tin biscuit boy
TTITLE2=Manhasset blues
TTITLE3=I can't hold out
TTITLE4=Helena ark
TTITLE5=Taxco
TTITLE6=Down at utopia
TTITLE7=B.B. kong
TTITLE8=Lucas and Margot
TTITLE9=Blues harp saga
TTITLE10=Fun home 
EXTD=
EXTT0=
EXTT1=
EXTT2=
EXTT3=
EXTT4=
EXTT5=
EXTT6=
EXTT7=
EXTT8=
EXTT9=
EXTT10=
PLAYORDER=
